{"title":"Ant-Man.2015.CAM.XviD.AC3-The Muffin Stuffers","uid":12207478,"size":1130308972,"categoryP":"video","categoryS":"movies","magnet":"?xt=urn:btih:b2c739f43869ae8ab2dfa1711eb05ba23a7d7c20&amp;dn=Ant-Man.2015.CAM.XviD.AC3-The+Muffin+Stuffers&amp;tr=udp%3A%2F%2Ftracker.openbittorrent.com%3A80&amp;tr=udp%3A%2F%2Fopen.demonii.com%3A1337&amp;tr=udp%3A%2F%2Ftracker.coppersurfer.tk%3A6969&amp;tr=udp%3A%2F%2Fexodus.desync.com%3A6969","seeders":0,"leechers":1,"uploader":"TvTeam","files":4,"time":1439016663,"description":"------------------------------------------------------------------------\n\n &lt;a href=&quot; https://www.torrenting.com&quot; rel=&quot;nofollow&quot; target=&quot;_NEW&quot;&gt; https://www.torrenting.com&lt;/a&gt;\n\nSign up is OPEN - for time being. Come and have fun\n\n.......................................................................................................................[img]http://s12.postimg.org/likpny0y5/Ant_Man_Poster.jpg[/img]\n\nAnt-Man.2015.CAM.XviD.AC3-The Muffin Stuffers\n\nSource Used was HQCAM-MRG &lt;a href=&quot;\nhttp://www.imdb.com/title/tt0478970/&quot; rel=&quot;nofollow&quot; target=&quot;_NEW&quot;&gt;\nhttp://www.imdb.com/title/tt0478970/&lt;/a&gt;\n\nTHERE IS A BIT OF MOVEMENT AND THE AR WAS WRONG ON THE SOURCE I USED SO DID A RESIZE TO WHAT LOOKS OK. IT SEEMS FULL RUNTIME ALSO. NOT MUCH CAN BE DONE WITH THIS SOURCE.BUT THIS ONE IS A TAD BETTER, ITS NOT TOO DARK, ENJOY.\n\nGeneral\nComplete name                            : Ant-Man.2015.CAM.XviD.AC3-The Muffin Stuffers.avi\nFormat                                   : AVI\nFormat/Info                              : Audio Video Interleave\nFile size                                : 1.01 GiB\nDuration                                 : 1h 42mn\nOverall bit rate                         : 1 414 Kbps\n\nVideo\nID                                       : 0\nFormat                                   : MPEG-4 Visual\nFormat profile                           : Advanced Simple@L5\nFormat settings, BVOP                    : 2\nFormat settings, QPel                    : No\nFormat settings, GMC                     : No warppoints\nFormat settings, Matrix                  : Default (H.263)\nMuxing mode                              : Packed bitstream\nCodec ID                                 : XVID\nCodec ID/Hint                            : XviD\nDuration                                 : 1h 42mn\nBit rate                                 : 1 149 Kbps\nWidth                                    : 684 pixels\nHeight                                   : 278 pixels\nDisplay aspect ratio                     : 2.460\nFrame rate                               : 29.970 fps\nColor space                              : YUV\nChroma subsampling                       : 4:2:0\nBit depth                                : 8 bits\nScan type                                : Progressive\nCompression mode                         : Lossy\nBits/(Pixel*Frame)                       : 0.202\nStream size                              : 840 MiB (81%)\nWriting library                          : XviD 64\n\nAudio\nID                                       : 1\nFormat                                   : AC-3\nFormat/Info                              : Audio Coding 3\nMode extension                           : CM (complete main)\nFormat settings, Endianness              : Big\nCodec ID                                 : 2000\nDuration                                 : 1h 42mn\nBit rate mode                            : Constant\nBit rate                                 : 256 Kbps\nChannel(s)                               : 2 channels\nChannel positions                        : Front: L R\nSampling rate                            : 48.0 KHz\nCompression mode                         : Lossy\nStream size                              : 187 MiB (18%)\nAlignment                                : Aligned on interleaves\nInterleave, duration                     : 64 ms (1.92 video frames)\nInterleave, preload duration             : 192 ms\n\n[img]http://s13.postimg.org/v60zuzsev/vlcsnap_2015_07_20_11h04m49s269.jpg[/img]\n[img]http://s13.postimg.org/9tthxb8gn/vlcsnap_2015_07_20_11h04m55s129.jpg[/img]\n[img]http://s13.postimg.org/q0zsddfh3/vlcsnap_2015_07_20_11h05m22s441.jpg[/img]\n[img]http://s13.postimg.org/6o8w73puf/vlcsnap_2015_07_20_11h07m11s948.jpg[/img]\n[img]http://s13.postimg.org/85yxwejyv/vlcsnap_2015_07_20_11h07m43s455.jpg[/img]\n[img]http://s13.postimg.org/iat088d5j/vlcsnap_2015_07_20_11h08m14s301.jpg[/img]\n[img]http://s13.postimg.org/fs7b7jrfb/vlcsnap_2015_07_20_11h08m19s086.jpg[/img]\n[img]http://s13.postimg.org/wq6bte0t3/vlcsnap_2015_07_20_11h09m51s234.jpg[/img]","torrent":{"xt":"urn:btih:b2c739f43869ae8ab2dfa1711eb05ba23a7d7c20","amp;dn":"Ant-Man.2015.CAM.XviD.AC3-The+Muffin+Stuffers","amp;tr":["udp%3A%2F%2Ftracker.openbittorrent.com%3A80","udp%3A%2F%2Fopen.demonii.com%3A1337","udp%3A%2F%2Ftracker.coppersurfer.tk%3A6969","udp%3A%2F%2Fexodus.desync.com%3A6969"],"infoHash":"b2c739f43869ae8ab2dfa1711eb05ba23a7d7c20","infoHashBuffer":{"type":"Buffer","data":[178,199,57,244,56,105,174,138,178,223,161,113,30,176,91,162,58,125,124,32]},"announce":[],"urlList":[]}}